<svg xmlns="http://www.w3.org/2000/svg" width="68.205" height="49.034" viewBox="0 0 68.205 49.034">
  <defs>
    <style>
      .cls-1 {
        fill: #001489;
      }
    </style>
  </defs>
  <g id="a84445084a25a4d6458473001bb17ecf" transform="translate(-10 -147.8)">
    <g id="Group_81" data-name="Group 81" transform="translate(10 147.8)">
      <g id="Group_80" data-name="Group 80">
        <path id="Path_204" data-name="Path 204" class="cls-1" d="M361.825,423.4H353.3v17.055h-6.4l10.657,12.794,10.657-12.794h-6.39Z" transform="translate(-323.448 -404.215)"/>
        <path id="Path_205" data-name="Path 205" class="cls-1" d="M68.808,165.307A13.888,13.888,0,0,0,51.9,156.891a19.189,19.189,0,0,0-35.5,9.676,12.791,12.791,0,0,0,6.4,23.87h9.592L28.83,186.17H22.781a8.529,8.529,0,0,1-1.942-16.832,14.569,14.569,0,0,1-.188-2.353,14.923,14.923,0,0,1,29.209-4.316,9.595,9.595,0,0,1,15.5,6.446h.063a8.527,8.527,0,0,1,0,17.055H59.375l-3.557,4.267h9.592a12.794,12.794,0,0,0,3.4-25.13Z" transform="translate(-10 -147.8)"/>
      </g>
    </g>
  </g>
</svg>
