<?xml version="1.0" encoding="utf-8"?>
<!-- Svg Vector Icons : http://www.onlinewebfonts.com/icon -->
<!DOCTYPE svg PUBLIC "-//W3C//DTD SVG 1.1//EN" "http://www.w3.org/Graphics/SVG/1.1/DTD/svg11.dtd">
<svg version="1.1" xmlns="http://www.w3.org/2000/svg" xmlns:xlink="http://www.w3.org/1999/xlink" x="0px" y="0px" viewBox="0 0 1000 1000" enable-background="new 0 0 1000 1000" xml:space="preserve">
<metadata> Svg Vector Icons : http://www.onlinewebfonts.com/icon </metadata>
<g><g><g><polygon points="561.3,423.4 438.8,423.4 438.8,668.4 346.9,668.4 500,852.2 653.1,668.4 561.3,668.4 "/><path d="M854.8,399.3c-28.4-75.4-101.1-129-186.4-129c-19.6,0-38.6,2.8-56.5,8.1C563.3,200,476.5,147.8,377.5,147.8c-150.2,0-272.4,120.2-275.6,269.6C47,449.2,10,508.7,10,576.6C10,678,92.3,760.3,193.8,760.3h137.8l-51.1-61.3h-86.9c-67.5,0-122.4-54.8-122.4-122.5c0-58,40.3-106.6,94.5-119.3c-1.8-11-2.7-22.3-2.7-33.8c0-118.4,96-214.4,214.4-214.4c96.8,0,178.7,64.2,205.2,152.4c23.6-18.7,53.3-29.9,85.7-29.9c70.9,0,129.4,53.6,137,122.5h0.9c67.5,0,122.4,54.8,122.4,122.5c0,67.5-54.8,122.5-122.4,122.5h-86.9l-51.1,61.3h137.8c101.4,0,183.8-82.5,183.8-183.8C990,491.9,932.7,420.6,854.8,399.3z"/></g></g><g></g><g></g><g></g><g></g><g></g><g></g><g></g><g></g><g></g><g></g><g></g><g></g><g></g><g></g><g></g></g>
</svg>