<svg xmlns="http://www.w3.org/2000/svg" xmlns:xlink="http://www.w3.org/1999/xlink" width="42.506" height="42.506" viewBox="0 0 42.506 42.506">
  <defs>
    <filter id="Path_3" x="0" y="0" width="42.506" height="42.506" filterUnits="userSpaceOnUse">
      <feOffset dy="3" input="SourceAlpha"/>
      <feGaussianBlur stdDeviation="3" result="blur"/>
      <feFlood flood-opacity="0.161"/>
      <feComposite operator="in" in2="blur"/>
      <feComposite in="SourceGraphic"/>
    </filter>
  </defs>
  <g transform="matrix(1, 0, 0, 1, 0, 0)" filter="url(#Path_3)">
    <path id="Path_3-2" data-name="Path 3" d="M12.253,2.178a37.57,37.57,0,0,1,4.9.136,6.315,6.315,0,0,1,2.314.408,4.781,4.781,0,0,1,2.314,2.314,6.315,6.315,0,0,1,.408,2.314c0,1.225.136,1.634.136,4.9a37.57,37.57,0,0,1-.136,4.9,6.315,6.315,0,0,1-.408,2.314,4.781,4.781,0,0,1-2.314,2.314,6.315,6.315,0,0,1-2.314.408c-1.225,0-1.634.136-4.9.136a37.57,37.57,0,0,1-4.9-.136,6.315,6.315,0,0,1-2.314-.408,4.781,4.781,0,0,1-2.314-2.314,6.315,6.315,0,0,1-.408-2.314c0-1.225-.136-1.634-.136-4.9a37.57,37.57,0,0,1,.136-4.9,6.315,6.315,0,0,1,.408-2.314,4.89,4.89,0,0,1,.953-1.361,2.3,2.3,0,0,1,1.361-.953,6.315,6.315,0,0,1,2.314-.408,37.57,37.57,0,0,1,4.9-.136m0-2.178A40.227,40.227,0,0,0,7.216.136a8.4,8.4,0,0,0-3,.545A5.33,5.33,0,0,0,2.042,2.042,5.33,5.33,0,0,0,.681,4.22a6.2,6.2,0,0,0-.545,3A40.227,40.227,0,0,0,0,12.253,40.227,40.227,0,0,0,.136,17.29a8.4,8.4,0,0,0,.545,3,5.33,5.33,0,0,0,1.361,2.178A5.33,5.33,0,0,0,4.22,23.825a8.4,8.4,0,0,0,3,.545,40.227,40.227,0,0,0,5.037.136,40.227,40.227,0,0,0,5.037-.136,8.4,8.4,0,0,0,3-.545,5.712,5.712,0,0,0,3.54-3.54,8.4,8.4,0,0,0,.545-3c0-1.361.136-1.77.136-5.037a40.227,40.227,0,0,0-.136-5.037,8.4,8.4,0,0,0-.545-3,5.33,5.33,0,0,0-1.361-2.178A5.33,5.33,0,0,0,20.286.681a8.4,8.4,0,0,0-3-.545A40.227,40.227,0,0,0,12.253,0m0,5.99A6.162,6.162,0,0,0,5.99,12.253,6.263,6.263,0,1,0,12.253,5.99m0,10.347a4.011,4.011,0,0,1-4.084-4.084,4.011,4.011,0,0,1,4.084-4.084,4.011,4.011,0,0,1,4.084,4.084,4.011,4.011,0,0,1-4.084,4.084M18.788,4.22a1.5,1.5,0,1,0,1.5,1.5,1.511,1.511,0,0,0-1.5-1.5" transform="translate(9 6)" fill="#564438" fill-rule="evenodd"/>
  </g>
</svg>
