<svg xmlns="http://www.w3.org/2000/svg" xmlns:xlink="http://www.w3.org/1999/xlink" width="42" height="43" viewBox="0 0 42 43">
  <defs>
    <style>
      .cls-1 {
        fill: #f3f3f3;
      }

      .cls-2 {
        filter: url(#Union_1);
      }
    </style>
    <filter id="Union_1" x="0" y="0" width="42" height="43" filterUnits="userSpaceOnUse">
      <feOffset dy="3" input="SourceAlpha"/>
      <feGaussianBlur stdDeviation="3" result="blur"/>
      <feFlood flood-opacity="0.161"/>
      <feComposite operator="in" in2="blur"/>
      <feComposite in="SourceGraphic"/>
    </filter>
  </defs>
  <g id="Profile" transform="translate(9 6)">
    <g class="cls-2" transform="matrix(1, 0, 0, 1, -9, -6)">
      <path id="Union_1-2" data-name="Union 1" class="cls-1" d="M0,25V21.875c0-3.438,5.4-6.251,12-6.251s12,2.812,12,6.251V25ZM6,6.251A6.129,6.129,0,0,1,12,0a6.129,6.129,0,0,1,6,6.251A6.129,6.129,0,0,1,12,12.5,6.129,6.129,0,0,1,6,6.251Z" transform="translate(9 6)"/>
    </g>
  </g>
</svg>
