<svg xmlns="http://www.w3.org/2000/svg" width="18.478" height="17" viewBox="0 0 18.478 17">
  <g id="comment" transform="translate(1.4)">
    <path id="Path_219" data-name="Path 219" d="M15.938-1.332H2.541A2.543,2.543,0,0,0,0,1.208v8.2a2.543,2.543,0,0,0,2.531,2.54v3.72l5.347-3.72h8.059a2.543,2.543,0,0,0,2.54-2.54v-8.2a2.543,2.543,0,0,0-2.54-2.54ZM17.4,9.407a1.459,1.459,0,0,1-1.458,1.458h-8.4L3.615,13.6V10.865H2.541A1.459,1.459,0,0,1,1.083,9.407v-8.2A1.459,1.459,0,0,1,2.541-.249h13.4A1.459,1.459,0,0,1,17.4,1.208Zm0,0" transform="translate(-1.4 1.332)" fill="#5c5c5c"/>
  </g>
</svg>
