<svg xmlns="http://www.w3.org/2000/svg" width="17" height="16.999" viewBox="0 0 17 16.999">
  <g id="speaker" transform="translate(-11 -10.998)">
    <g id="Group_90" data-name="Group 90" transform="translate(11 10.998)">
      <g id="Group_89" data-name="Group 89">
        <path id="Path_210" data-name="Path 210" d="M408.949,68.876a.721.721,0,0,0-1-.146.7.7,0,0,0-.146.985,9.5,9.5,0,0,1,0,10.808.691.691,0,0,0,.146.985.771.771,0,0,0,1-.146,10.975,10.975,0,0,0,0-12.487Z" transform="translate(-393.898 -66.593)" fill="#9e9d9d"/>
        <path id="Path_211" data-name="Path 211" d="M358.878,135.318a.724.724,0,0,0-1-.146.7.7,0,0,0-.146.985,5.521,5.521,0,0,1,0,6.2.694.694,0,0,0,.146.985.753.753,0,0,0,1-.146,6.826,6.826,0,0,0,0-7.879Z" transform="translate(-345.565 -130.731)" fill="#9e9d9d"/>
        <path id="Path_212" data-name="Path 212" d="M20.746,25.823l-6.433-4.261V17.479l6.433-4.247V25.823Zm-6.433-4.261H12.429V17.479h1.884Zm6.755-10.416L14.82,16.07H11.715a.709.709,0,0,0-.715.7v5.489a.709.709,0,0,0,.715.7h3.164l6.19,4.882a.683.683,0,0,0,1.107-.524V11.671a.681.681,0,0,0-1.107-.524Z" transform="translate(-11 -10.998)" fill="#9e9d9d"/>
      </g>
    </g>
  </g>
</svg>
