<svg xmlns="http://www.w3.org/2000/svg" xmlns:xlink="http://www.w3.org/1999/xlink" width="42.506" height="37.877" viewBox="0 0 42.506 37.877">
  <defs>
    <style>
      .cls-1 {
        fill: #f3f3f3;
        fill-rule: evenodd;
      }

      .cls-2 {
        filter: url(#Path_2);
      }
    </style>
    <filter id="Path_2" x="0" y="0" width="42.506" height="37.877" filterUnits="userSpaceOnUse">
      <feOffset dy="3" input="SourceAlpha"/>
      <feGaussianBlur stdDeviation="3" result="blur"/>
      <feFlood flood-opacity="0.161"/>
      <feComposite operator="in" in2="blur"/>
      <feComposite in="SourceGraphic"/>
    </filter>
  </defs>
  <g class="cls-2" transform="matrix(1, 0, 0, 1, 0, 0)">
    <path id="Path_2-2" data-name="Path 2" class="cls-1" d="M45.76,21.877a14.168,14.168,0,0,0,14.3-14.3V6.9a11.067,11.067,0,0,0,2.451-2.587,11.3,11.3,0,0,1-2.859.817,5.3,5.3,0,0,0,2.178-2.723,12.488,12.488,0,0,1-3.131,1.225A4.862,4.862,0,0,0,55.018,2a5.115,5.115,0,0,0-5.037,5.037,2.654,2.654,0,0,0,.136,1.089A14.076,14.076,0,0,1,39.77,2.817,5.214,5.214,0,0,0,39.089,5.4a5.409,5.409,0,0,0,2.178,4.22,4.59,4.59,0,0,1-2.314-.681h0a4.976,4.976,0,0,0,4.084,4.9,4.2,4.2,0,0,1-1.361.136,2.317,2.317,0,0,1-.953-.136,5.158,5.158,0,0,0,4.765,3.54,10.279,10.279,0,0,1-6.263,2.178A3.769,3.769,0,0,1,38,19.427a12.85,12.85,0,0,0,7.76,2.451" transform="translate(-29 4)"/>
  </g>
</svg>
